<svg version="1.1" xmlns="http://www.w3.org/2000/svg" xmlns:xlink="http://www.w3.org/1999/xlink" x="0px" y="0px"
	 width="511.583px" height="511.516px" viewBox="0 0 511.583 511.516" enable-background="new 0 0 511.583 511.516"
	 xml:space="preserve">
<g>
	<g>
		<path fill-rule="evenodd" clip-rule="evenodd" d="M384.804,78.566c4.613,3.657,9.226,7.313,13.837,10.971
			c-3.911,3.612-7.493,7.7-11.836,10.682c-3.288,2.257-7.438,3.711-11.399,4.407c-4.068,0.715-8.374,0.075-12.575,0.028
			c3.002,2.811,6.006,5.62,9.006,8.434c0.363,0.342,0.991,0.687,1.016,1.062c0.242,3.723,0.867,7.538,0.231,11.123
			c-0.172,0.97-4.219,1.583-6.536,1.777c-5.803,0.486-11.64,0.556-17.447,1.002c-1.051,0.081-2.85,1.09-2.908,1.787
			c-0.666,7.939-4.547,15.928,5.009,22.528c8.934,6.17,13.982,6.501,19.679-2.632c2.115-3.392,4.166-6.838,6.53-10.052
			c0.865-1.177,2.648-2.597,3.843-2.456c5.309,0.626,7.739-1.013,7.026-6.688c-0.115-0.916,1.794-3.036,2.648-2.974
			c7.024,0.514,14.813-0.28,20.862,2.546c12.564,5.871,24.204,13.724,36.224,20.763l-0.067-0.035
			c0.331,0.337,0.663,0.673,0.994,1.01c1.636,3.194,3.271,6.39,4.904,9.58c-4.238-3.014-5.845-0.89-6.699,3.262
			c-0.5,2.43-0.962,5.108-2.336,7.037c-1.001,1.404-3.758,2.823-5.229,2.417c-8.488-2.343-16.893-5.051-25.157-8.088
			c-1.528-0.562-3.636-3.775-3.201-4.787c3.998-9.295-0.461-10.546-8.278-9.662c-4.111,0.465-8.396-0.411-12.461,0.224
			c-3.875,0.605-8.277,1.498-11.194,3.831c-6.628,5.302-13.27,9.098-22.11,9.96c-10.957,1.067-13.053,4.294-14.237,15.319
			c-0.151,1.401-1.19,3.482-2.309,3.884c-9.29,3.336-15.036,11.558-16.643,19.373c-2.647,12.883-1.404,26.566-1.75,39.914
			c-0.01,0.388,0.502,0.869,0.877,1.176c10.318,8.412,15.178,20.383,20.935,31.8c0.673,1.335,2.519,2.853,3.898,2.933
			c9.781,0.565,19.228,0.843,27.57-6.567c6.8-6.039,14.467-4.219,18.869,3.534c2.633,4.638,5.677,6.896,11.055,6.008
			c4.843-0.799,6.648,1.671,6.268,6.357c-0.603,7.413-0.299,14.633,5.186,20.568c0.607,0.656,0.973,1.847,0.918,2.757
			c-0.855,14.349-1.824,28.689-2.686,43.038c-0.102,1.7-0.233,3.703,0.517,5.101c5.031,9.387,10.299,18.647,15.489,27.949
			c-38.306,49.732-88.682,78.285-150.888,86.308c-39.189,5.054-76.512-1.659-112.56-17.056
			c15.75-17.194,31.532-34.358,47.191-51.635c1.442-1.591,3.166-4.042,2.925-5.849c-0.938-7.018,2.001-11.206,8.002-14.292
			c3.824-1.966,7.053-5.075,10.846-7.122c5.316-2.868,7.49-7.091,8.685-12.963c1.348-6.626,3.028-13.984,7.029-19.096
			c7.001-8.947,9.618-18.343,8.103-29.146c-0.26-1.857-2.125-4.375-3.828-4.992c-7.494-2.717-15.062-5.615-22.86-7.021
			c-13.24-2.386-21.981-9.128-27.163-21.691c-1.531-3.713-6.22-7.624-10.145-8.551c-9.18-2.166-16.137-6.609-22.321-13.596
			c-8.944-10.104-27.637-13.691-39.601-7.071c-9.329,5.162-18.121,5.742-27.355,1.273c-1.871-0.905-3.876-3.464-4.098-5.452
			c-0.506-4.541,1.869-10.66-0.333-13.401c-2.192-2.729-8.52-2.319-13.083-2.91c-4.685-0.607-5.396-2.646-3.606-6.771
			c4.118-9.494,3.797-9.953-6.526-9.51c-1.547,0.066-3.013,1.807-4.533,2.746c-1.779,1.1-3.523,2.988-5.374,3.107
			c-7.141,0.457-14.609-7.13-14.645-14.243c-0.02-3.998-0.065-8.008-0.375-11.99c-0.762-9.771,3.167-13.395,13.038-12.171
			c3.003,0.372,6.659,1.053,9.061-0.216c12.894-6.815,19.877-5.181,27.314,7.223c0.771,1.284,1.307,2.765,2.288,3.852
			c0.828,0.918,2.587,2.217,3.154,1.909c1.417-0.769,3.053-2.207,3.375-3.65c0.405-1.814-0.534-3.893-0.677-5.873
			c-0.507-7.019-4.505-13.983,2.878-20.6c6.894-6.178,15.458-12.342,13.098-23.989c-0.096-0.476,0.506-1.503,0.952-1.616
			c7.171-1.834,5.012-7.607,5.704-12.438c0.307-2.138,2.279-5.012,4.184-5.735c3.698-1.403,10.06-3.436,11.475-1.827
			c4.944,5.619,10.892,5.066,16.487,4.106c3.204-0.55,5.851-4.347,8.748-6.681c-1.495-1.799-2.643-4.301-4.558-5.244
			c-3.57-1.757-7.594-2.584-11.414-3.846c-1.865-0.615-3.696-1.338-5.542-2.012c1.918-0.438,3.825-0.944,5.758-1.297
			c3.366-0.615,8.043,0.063,9.881-1.921c5.437-5.869,11.94-8.615,19.431-10.063c0.786-0.151,2.062-2.038,1.862-2.369
			c-2.828-4.703-4.889-10.751-9.086-13.547c-6.887-4.589-11.873-9.628-13.673-17.759c-0.495-2.236-1.725-4.309-2.618-6.456
			c10.38-3.765,20.76-7.529,31.139-11.293c4.444,4.959,9.172,9.695,13.26,14.932c4.977,6.376,11.12,1.626,16.667,2.286
			c0.022,0.002,0.132-1.621,0.376-2.433c0.993-3.309,1.339-7.107,3.249-9.777c3.354-4.688,7.681-8.682,11.601-12.966
			c39.051-2.008,76.074,5.803,111.163,22.974c1.512,4.724,3.374,9.368,4.438,14.189c1.099,4.976,2.735,10.379,1.811,15.143
			c-1.965,10.114-2.584,9.975,7.938,10.301c2.818,0.087,5.82,1.011,8.392,0.299c2.318-0.642,5.336-2.623,5.984-4.667
			C383.394,89.46,383.867,83.939,384.804,78.566z"/>
		<path fill-rule="evenodd" clip-rule="evenodd" d="M36.613,233.711c5.615,0.42,11.435,1.988,16.805,1.033
			c13.015-2.317,23.303,2.211,32.474,10.64c1.256,1.154,2.584,3.373,2.328,4.825c-0.958,5.432,1.185,8.582,6.128,10.234
			c6.489,2.169,13.147,3.934,19.409,6.626c2.238,0.962,4.778,3.988,5.024,6.302c0.777,7.301,0.959,14.346-5.825,20.2
			c-6.037,5.21-6.824,21.43-3.079,28.747c2.802,5.476,6.558,10.848,7.726,16.698c2.807,14.058,11.817,22.355,23.233,29.348
			c1.615,0.989,2.281,4.85,2.08,7.273c-1.83,22.035-3.949,44.046-5.984,66.064c-57.44-37.721-90.839-90.788-99.692-158.766
			C35.136,266.774,36.724,250.132,36.613,233.711z"/>
	</g>
	<g>
		<path opacity="0" fill-rule="evenodd" clip-rule="evenodd" d="M165.742,55.625c0.893,2.147,2.123,4.22,2.618,6.456
			c1.8,8.131,6.787,13.17,13.673,17.759c4.197,2.796,6.258,8.844,9.086,13.547c0.199,0.331-1.077,2.218-1.862,2.369
			c-7.49,1.447-13.994,4.193-19.431,10.063c-1.838,1.984-6.515,1.306-9.881,1.921c-1.934,0.353-3.84,0.859-5.758,1.297
			c1.846,0.674,3.677,1.396,5.542,2.012c3.82,1.262,7.844,2.089,11.414,3.846c1.916,0.943,3.063,3.445,4.558,5.244
			c-2.897,2.334-5.544,6.131-8.748,6.681c-5.595,0.96-11.543,1.513-16.487-4.106c-1.415-1.608-7.776,0.424-11.475,1.827
			c-1.905,0.724-3.877,3.598-4.184,5.735c-0.692,4.83,1.467,10.604-5.704,12.438c-0.445,0.113-1.048,1.141-0.952,1.616
			c2.361,11.647-6.204,17.812-13.098,23.989c-7.383,6.616-3.385,13.581-2.878,20.6c0.143,1.98,1.083,4.059,0.677,5.873
			c-0.322,1.443-1.958,2.882-3.375,3.65c-0.567,0.308-2.326-0.991-3.154-1.909c-0.98-1.087-1.517-2.567-2.288-3.852
			c-7.438-12.403-14.421-14.038-27.314-7.223c-2.401,1.269-6.057,0.588-9.061,0.216c-9.871-1.224-13.8,2.399-13.038,12.171
			c0.311,3.982,0.355,7.992,0.375,11.99c0.036,7.113,7.504,14.7,14.645,14.243c1.851-0.119,3.595-2.008,5.374-3.107
			c1.52-0.939,2.986-2.68,4.533-2.746c10.323-0.443,10.645,0.016,6.526,9.51c-1.79,4.125-1.079,6.164,3.606,6.771
			c4.563,0.591,10.89,0.181,13.083,2.91c2.202,2.741-0.173,8.86,0.333,13.401c0.222,1.988,2.228,4.547,4.098,5.452
			c9.235,4.469,18.027,3.889,27.355-1.273c11.964-6.62,30.657-3.032,39.601,7.071c6.184,6.986,13.141,11.43,22.321,13.596
			c3.925,0.927,8.613,4.838,10.145,8.551c5.181,12.563,13.923,19.306,27.163,21.691c7.798,1.405,15.366,4.304,22.86,7.021
			c1.703,0.617,3.568,3.135,3.828,4.992c1.515,10.803-1.102,20.198-8.103,29.146c-4,5.111-5.681,12.47-7.029,19.096
			c-1.194,5.872-3.369,10.095-8.685,12.963c-3.792,2.047-7.021,5.156-10.846,7.122c-6.001,3.086-8.94,7.274-8.002,14.292
			c0.241,1.807-1.482,4.258-2.925,5.849c-15.659,17.276-31.442,34.44-47.191,51.635c-10.251-5.438-20.502-10.878-30.753-16.316
			c2.035-22.019,4.155-44.029,5.984-66.064c0.201-2.424-0.465-6.284-2.08-7.273c-11.417-6.992-20.427-15.29-23.233-29.348
			c-1.168-5.851-4.924-11.223-7.726-16.698c-3.745-7.317-2.958-23.537,3.079-28.747c6.784-5.854,6.602-12.899,5.825-20.2
			c-0.246-2.313-2.787-5.34-5.024-6.302c-6.261-2.692-12.919-4.457-19.409-6.626c-4.944-1.652-7.087-4.803-6.128-10.234
			c0.256-1.452-1.072-3.671-2.328-4.825c-9.171-8.429-19.459-12.957-32.474-10.64c-5.37,0.955-11.19-0.613-16.805-1.033
			c3.985-42.715,19.873-80.663,46.28-114.239c20.902-26.578,46.799-47.063,77.317-61.662
			C161.995,56.956,163.896,56.348,165.742,55.625z"/>
		<path opacity="0" fill-rule="evenodd" clip-rule="evenodd" d="M431.134,388.767
			c-5.19-9.302-10.458-18.563-15.489-27.949c-0.75-1.397-0.618-3.4-0.517-5.101c0.861-14.349,1.83-28.689,2.686-43.038
			c0.055-0.91-0.311-2.101-0.918-2.757c-5.484-5.936-5.788-13.155-5.186-20.568c0.381-4.687-1.425-7.156-6.268-6.357
			c-5.378,0.888-8.422-1.37-11.055-6.008c-4.402-7.753-12.069-9.573-18.869-3.534c-8.343,7.41-17.789,7.133-27.57,6.567
			c-1.38-0.08-3.226-1.598-3.898-2.933c-5.757-11.417-10.616-23.388-20.935-31.8c-0.375-0.307-0.887-0.788-0.877-1.176
			c0.346-13.348-0.897-27.031,1.75-39.914c1.606-7.815,7.353-16.037,16.643-19.373c1.118-0.401,2.157-2.482,2.309-3.884
			c1.185-11.025,3.28-14.252,14.237-15.319c8.841-0.862,15.482-4.658,22.11-9.96c2.917-2.333,7.319-3.226,11.194-3.831
			c4.065-0.635,8.35,0.241,12.461-0.224c7.817-0.884,12.276,0.367,8.278,9.662c-0.435,1.012,1.673,4.226,3.201,4.787
			c8.265,3.037,16.669,5.745,25.157,8.088c1.472,0.406,4.229-1.013,5.229-2.417c1.374-1.929,1.836-4.607,2.336-7.037
			c0.854-4.151,2.461-6.275,6.699-3.262c11.648,22.597,18.085,46.793,20.689,71.883c5.883,56.681-8.87,107.941-41.998,154.088
			C432.162,387.923,431.605,388.314,431.134,388.767z"/>
		<path opacity="0" fill-rule="evenodd" clip-rule="evenodd" d="M448.013,150.875
			c-12.02-7.039-23.659-14.892-36.224-20.763c-6.05-2.826-13.838-2.032-20.862-2.546c-0.854-0.063-2.764,2.058-2.648,2.974
			c0.713,5.675-1.718,7.313-7.026,6.688c-1.194-0.141-2.978,1.279-3.843,2.456c-2.364,3.214-4.415,6.66-6.53,10.052
			c-5.696,9.133-10.745,8.802-19.679,2.632c-9.556-6.601-5.675-14.589-5.009-22.528c0.059-0.697,1.857-1.706,2.908-1.787
			c5.808-0.446,11.645-0.516,17.447-1.002c2.317-0.194,6.364-0.808,6.536-1.777c0.636-3.585,0.011-7.4-0.231-11.123
			c-0.024-0.375-0.652-0.72-1.016-1.062c-3-2.813-6.004-5.623-9.006-8.434c4.201,0.047,8.507,0.687,12.575-0.028
			c3.962-0.696,8.111-2.15,11.399-4.407c4.343-2.981,7.925-7.069,11.836-10.682C419.305,106.598,436.183,126.704,448.013,150.875z"
			/>
		<path opacity="0" fill-rule="evenodd" clip-rule="evenodd" d="M384.804,78.566
			c-0.938,5.373-1.41,10.894-3.045,16.046c-0.648,2.044-3.666,4.025-5.984,4.667c-2.571,0.712-5.573-0.212-8.392-0.299
			c-10.522-0.326-9.903-0.187-7.938-10.301c0.925-4.764-0.712-10.167-1.811-15.143c-1.063-4.821-2.926-9.466-4.438-14.189
			C363.732,65.753,374.268,72.16,384.804,78.566z"/>
		<path opacity="0" fill-rule="evenodd" clip-rule="evenodd" d="M242.034,36.374
			c-3.92,4.284-8.247,8.277-11.601,12.966c-1.91,2.67-2.256,6.469-3.249,9.777c-0.244,0.812-0.354,2.435-0.376,2.433
			c-5.547-0.66-11.689,4.09-16.667-2.286c-4.088-5.236-8.816-9.973-13.26-14.932C211.932,41.679,226.983,39.026,242.034,36.374z"/>
		<path opacity="0" fill-rule="evenodd" clip-rule="evenodd" d="M448.94,151.85c-0.331-0.337-0.663-0.673-0.994-1.01
			C448.277,151.177,448.609,151.513,448.94,151.85z"/>
	</g>
</g>
<g>
	<path d="M255.811,40.065c119.11,0,215.667,96.558,215.667,215.667c0,119.11-96.558,215.669-215.667,215.669
		c-119.11,0-215.668-96.559-215.668-215.669C40.143,136.623,136.7,40.065,255.811,40.065 M255.811,0.065
		c-34.498,0-67.984,6.766-99.53,20.108c-30.45,12.879-57.788,31.308-81.255,54.775C51.559,98.416,33.13,125.754,20.25,156.203
		C6.908,187.749,0.143,221.235,0.143,255.732s6.766,67.984,20.108,99.53c12.879,30.449,31.308,57.787,54.775,81.255
		c23.467,23.467,50.805,41.896,81.255,54.775c31.546,13.343,65.032,20.108,99.53,20.108s67.984-6.766,99.53-20.108
		c30.449-12.879,57.787-31.309,81.255-54.775c23.467-23.468,41.896-50.806,54.774-81.255c13.343-31.546,20.108-65.033,20.108-99.53
		s-6.766-67.983-20.108-99.529c-12.879-30.449-31.308-57.788-54.774-81.254c-23.468-23.467-50.806-41.896-81.255-54.775
		C323.794,6.831,290.308,0.065,255.811,0.065L255.811,0.065z"/>
</g>
</svg>
